<svg xmlns="http://www.w3.org/2000/svg">
<symbol id="futbol" viewBox="0 0 496 512"><path d="M483.8 179.4C449.8 74.6 352.6 8 248.1 8c-25.4 0-51.2 3.9-76.7 12.2C41.2 62.5-30.1 202.4 12.2 332.6 46.2 437.4 143.4 504 247.9 504c25.4 0 51.2-3.9 76.7-12.2 130.2-42.3 201.5-182.2 159.2-312.4zm-74.5 193.7l-52.2 6.4-43.7-60.9 24.4-75.2 71.1-22.1 38.9 36.4c-.2 30.7-7.4 61.1-21.7 89.2-4.7 9.3-10.7 17.8-16.8 26.2zm0-235.4l-10.4 53.1-70.7 22-64.2-46.5V92.5l47.4-26.2c39.2 13 73.4 38 97.9 71.4zM184.9 66.4L232 92.5v73.8l-64.2 46.5-70.6-22-10.1-52.5c24.3-33.4 57.9-58.6 97.8-71.9zM139 379.5L85.9 373c-14.4-20.1-37.3-59.6-37.8-115.3l39-36.4 71.1 22.2 24.3 74.3-43.5 61.7zm48.2 67l-22.4-48.1 43.6-61.7H287l44.3 61.7-22.4 48.1c-6.2 1.8-57.6 20.4-121.7 0z"/></symbol>
<symbol id="heart" viewBox="0 0 512 512"><path d="M458.4 64.3C400.6 15.7 311.3 23 256 79.3 200.7 23 111.4 15.6 53.6 64.3-21.6 127.6-10.6 230.8 43 285.5l175.4 178.7c10 10.2 23.4 15.9 37.6 15.9 14.3 0 27.6-5.6 37.6-15.8L469 285.6c53.5-54.7 64.7-157.9-10.6-221.3zm-23.6 187.5L259.4 430.5c-2.4 2.4-4.4 2.4-6.8 0L77.2 251.8c-36.5-37.2-43.9-107.6 7.3-150.7 38.9-32.7 98.9-27.8 136.5 10.5l35 35.7 35-35.7c37.8-38.5 97.8-43.2 136.5-10.6 51.1 43.1 43.5 113.9 7.3 150.8z"/></symbol>
<symbol id="user" viewBox="0 0 448 512"><path d="M313.6 304c-28.7 0-42.5 16-89.6 16-47.1 0-60.8-16-89.6-16C60.2 304 0 364.2 0 438.4V464c0 26.5 21.5 48 48 48h352c26.5 0 48-21.5 48-48v-25.6c0-74.2-60.2-134.4-134.4-134.4zM400 464H48v-25.6c0-47.6 38.8-86.4 86.4-86.4 14.6 0 38.3 16 89.6 16 51.7 0 74.9-16 89.6-16 47.6 0 86.4 38.8 86.4 86.4V464zM224 288c79.5 0 144-64.5 144-144S303.5 0 224 0 80 64.5 80 144s64.5 144 144 144zm0-240c52.9 0 96 43.1 96 96s-43.1 96-96 96-96-43.1-96-96 43.1-96 96-96z"/></symbol>
</svg>